<?xml version="1.0" encoding="UTF-8" standalone="no"?>
<svg
   xmlns:dc="http://purl.org/dc/elements/1.1/"
   xmlns:cc="http://creativecommons.org/ns#"
   xmlns:rdf="http://www.w3.org/1999/02/22-rdf-syntax-ns#"
   xmlns:svg="http://www.w3.org/2000/svg"
   xmlns="http://www.w3.org/2000/svg"
   xmlns:sodipodi="http://sodipodi.sourceforge.net/DTD/sodipodi-0.dtd"
   xmlns:inkscape="http://www.inkscape.org/namespaces/inkscape"
   version="1.0"
   width="800px"
   height="800px"
   viewBox="0 0 8000 8000"
   preserveAspectRatio="xMidYMid meet"
   id="svg4556"
   sodipodi:docname="logo.svg"
   inkscape:version="0.92.2 (5c3e80d, 2017-08-06)">
  <metadata
     id="metadata4562">
    <rdf:RDF>
      <cc:Work
         rdf:about="">
        <dc:format>image/svg+xml</dc:format>
        <dc:type
           rdf:resource="http://purl.org/dc/dcmitype/StillImage" />
      </cc:Work>
    </rdf:RDF>
  </metadata>
  <defs
     id="defs4560" />
  <sodipodi:namedview
     pagecolor="#ffffff"
     bordercolor="#666666"
     borderopacity="1"
     objecttolerance="10"
     gridtolerance="10"
     guidetolerance="10"
     inkscape:pageopacity="0"
     inkscape:pageshadow="2"
     inkscape:window-width="1920"
     inkscape:window-height="1018"
     id="namedview4558"
     showgrid="false"
     inkscape:zoom="0.295"
     inkscape:cx="400"
     inkscape:cy="400"
     inkscape:window-x="-8"
     inkscape:window-y="32"
     inkscape:window-maximized="1"
     inkscape:current-layer="svg4556" />
  <g
     id="layer1"
     fill="#0008ff"
     stroke="none">
    <path
       d="M4736 5611 c-4 -5 -2 -12 3 -15 5 -4 12 -2 15 3 4 5 2 12 -3 15 -5 4 -12 2 -15 -3z"
       id="path4534" />
    <path
       d="M5546 4801 c-4 -5 -2 -12 3 -15 5 -4 12 -2 15 3 4 5 2 12 -3 15 -5 4 -12 2 -15 -3z"
       id="path4536" />
    <path
       d="M4736 2411 c-4 -5 -2 -12 3 -15 5 -4 12 -2 15 3 4 5 2 12 -3 15 -5 4 -12 2 -15 -3z"
       id="path4538" />
  </g>
  <g
     id="layer2"
     fill="#000000"
     stroke="none"
     style="fill:#ffffff;fill-opacity:1">
    <path
       d="M704 7981 c-63 -21 -95 -44 -160 -113 -59 -63 -88 -113 -109 -195 -28 -107 -13 -224 42 -325 32 -58 133 -157 190 -187 134 -68 293 -66 425 6 58 32 157 133 187 190 66 130 66 286 0 415 -25 49 -118 150 -165 178 -59 37 -123 50 -244 49 -81 0 -130 -5 -166 -18z"
       id="path4541"
       style="fill:#ffffff;fill-opacity:1" />
    <path
       d="M1851 7983 c-55 -20 -168 -125 -204 -191 -74 -135 -74 -298 0 -434 32 -58 133 -157 190 -187 134 -68 293 -66 425 6 58 32 157 133 187 190 68 134 66 293 -6 425 -38 69 -149 171 -209 192 -65 22 -319 22 -383 -1z"
       id="path4543"
       style="fill:#ffffff;fill-opacity:1" />
    <path
       d="M3179 7986 c-76 -17 -132 -52 -200 -123 -64 -67 -92 -117 -114 -200 -27 -103 -14 -218 36 -315 29 -58 124 -154 184 -189 l50 -29 447 0 c293 0 465 -4 500 -11 128 -27 242 -117 300 -236 32 -65 33 -73 33 -188 0 -115 -1 -123 -33 -188 -59 -120 -175 -211 -302 -235 -32 -7 -221 -12 -450 -14 -415 -2 -458 -6 -543 -49 -57 -30 -158 -129 -190 -187 -74 -135 -74 -299 0 -434 35 -65 140 -163 206 -193 54 -25 86 -33 249 -59 111 -18 184 -52 251 -115 142 -134 176 -346 86 -523 -29 -58 -110 -140 -167 -171 -108 -59 -70 -57 -1234 -57 -752 0 -1083 -3 -1120 -11 -130 -28 -259 -131 -320 -257 -32 -64 -33 -72 -33 -187 0 -115 1 -123 33 -187 61 -126 190 -229 320 -257 37 -8 360 -11 1085 -11 1114 -1 1128 -1 1242 -54 68 -31 153 -110 188 -174 147 -270 -12 -602 -309 -643 -35 -5 -93 -13 -128 -18 -92 -13 -167 -51 -240 -121 -71 -68 -108 -129 -131 -215 -41 -159 5 -314 129 -434 126 -121 171 -131 568 -131 189 0 327 -4 360 -11 128 -27 242 -117 300 -236 32 -65 33 -73 33 -188 0 -115 -1 -123 -33 -188 -58 -119 -172 -209 -300 -236 -36 -7 -271 -11 -747 -11 -476 0 -711 -4 -747 -11 -130 -28 -259 -131 -320 -257 -32 -64 -33 -72 -33 -187 0 -115 1 -123 33 -187 37 -77 129 -176 194 -209 97 -50 1 -48 2563 -48 2575 -1 2491 -2 2627 49 128 48 282 173 368 300 115 169 153 372 116 618 -35 227 -211 452 -439 561 -164 79 -91 74 -1152 81 -612 5 -966 11 -995 18 -337 79 -562 309 -625 635 -32 165 -9 332 69 490 95 196 240 323 454 400 l87 32 975 5 c1055 6 989 3 1142 60 128 48 282 173 368 300 115 169 153 372 116 618 -35 227 -211 452 -439 561 -164 79 -91 74 -1152 81 -612 5 -966 11 -995 18 -337 79 -562 309 -625 635 -32 165 -9 332 69 490 95 196 240 323 454 400 l87 32 975 5 c1055 6 989 3 1142 60 128 48 282 173 368 300 115 169 153 372 116 618 -45 294 -324 573 -618 618 -128 19 -4100 19 -4189 0z"
       id="path4545"
       style="fill:#ffffff;fill-opacity:1" />
    <path
       d="M675 6236 c-126 -31 -248 -132 -307 -254 -32 -64 -33 -72 -33 -187 0 -115 1 -123 33 -187 61 -126 190 -229 320 -257 74 -15 1450 -15 1524 0 130 28 258 130 320 256 32 66 33 72 33 188 0 116 -1 122 -33 188 -62 126 -190 228 -320 256 -78 16 -1469 14 -1537 -3z"
       id="path4547"
       style="fill:#ffffff;fill-opacity:1" />
    <path
       d="M655 2710 c-148 -4 -284 -11 -300 -17 -121 -41 -233 -139 -287 -251 -32 -64 -33 -72 -33 -187 0 -115 1 -123 33 -187 60 -124 176 -218 309 -253 84 -22 614 -22 698 0 132 35 254 133 309 249 127 268 -34 578 -333 642 -36 7 -79 13 -96 12 -16 -1 -151 -5 -300 -8z"
       id="path4549"
       style="fill:#ffffff;fill-opacity:1" />
    <path
       d="M2011 2694 c-81 -22 -144 -60 -210 -128 -65 -69 -94 -119 -116 -203 -28 -107 -13 -224 42 -325 32 -58 133 -157 190 -187 134 -68 293 -66 425 6 58 32 157 133 187 190 66 130 66 286 0 416 -30 57 -129 158 -187 190 -101 55 -224 70 -331 41z"
       id="path4551"
       style="fill:#ffffff;fill-opacity:1" />
    <path
       d="M1061 884 c-81 -22 -144 -60 -210 -128 -65 -69 -94 -119 -116 -203 -27 -103 -14 -218 36 -315 28 -55 122 -153 177 -185 116 -68 338 -68 454 0 55 32 149 130 177 185 66 129 66 285 0 415 -30 57 -129 158 -187 190 -101 55 -224 70 -331 41z"
       id="path4553"
       style="fill:#ffffff;fill-opacity:1" />
  </g>
</svg>
