<!DOCTYPE svg PUBLIC "-//W3C//DTD SVG 20010904//EN" "http://www.w3.org/TR/2001/REC-SVG-20010904/DTD/svg10.dtd">
<svg version="1.0" xmlns="http://www.w3.org/2000/svg" width="1600px" height="341px" viewBox="0 0 16000 3410" preserveAspectRatio="xMidYMid meet">
<g id="layer1" fill="#ffffff" stroke="none">
 <path d="M245 3391 c-116 -71 -127 -219 -23 -318 42 -40 76 -53 142 -53 41 0 62 6 94 28 77 51 120 135 106 207 -9 50 -59 120 -98 139 -50 23 -181 22 -221 -3z"/>
 <path d="M730 3388 c-102 -69 -105 -229 -7 -315 93 -82 223 -63 303 43 40 52 45 151 12 209 -40 68 -76 85 -183 85 -79 0 -97 -3 -125 -22z"/>
 <path d="M1295 3396 c-57 -26 -115 -114 -115 -175 0 -60 57 -151 114 -184 14 -8 97 -14 241 -17 247 -6 252 -7 295 -83 31 -55 25 -139 -14 -189 -43 -57 -89 -68 -295 -68 -150 0 -182 -3 -216 -19 -105 -49 -155 -174 -106 -269 38 -74 129 -132 207 -132 40 0 101 -37 129 -77 48 -71 28 -177 -43 -231 l-35 -27 -496 -5 c-543 -5 -524 -3 -582 -67 -51 -56 -59 -75 -59 -144 0 -57 4 -71 30 -107 16 -23 47 -53 67 -66 l38 -25 490 -8 c469 -8 492 -9 530 -29 52 -27 85 -83 85 -147 0 -89 -52 -148 -147 -167 -32 -6 -68 -13 -81 -16 -32 -7 -112 -82 -128 -121 -30 -71 -13 -155 45 -216 50 -55 73 -61 256 -67 193 -6 213 -13 259 -83 49 -77 24 -186 -54 -231 -33 -20 -55 -21 -370 -26 -328 -5 -336 -5 -372 -28 -21 -13 -52 -42 -70 -65 -31 -38 -33 -46 -33 -118 0 -71 2 -80 31 -116 63 -79 -30 -73 1170 -73 1230 0 1137 -7 1233 89 82 82 104 143 99 271 -3 71 -9 105 -25 135 -34 66 -98 129 -165 165 l-63 34 -435 6 -435 6 -55 25 c-120 56 -181 143 -188 271 -8 140 52 248 170 307 l61 31 186 1 c102 0 303 4 446 8 246 6 262 8 304 30 62 33 143 111 172 168 21 42 24 61 24 158 0 97 -3 116 -24 158 -30 57 -110 136 -172 168 -42 22 -56 23 -384 30 -585 14 -553 11 -612 42 -107 55 -162 140 -171 264 -10 145 55 256 185 316 47 21 60 22 488 27 l440 5 63 34 c67 37 131 100 165 166 16 30 22 64 25 135 5 128 -17 189 -99 271 -95 95 -24 89 -1068 89 -735 -1 -912 -3 -936 -14z"/>
 <path d="M3628 2290 c-2 -616 -3 -1195 -3 -1287 l0 -168 264 -3 c146 -1 268 1 272 5 4 5 13 62 20 128 l12 120 61 -64 c145 -152 342 -231 578 -231 347 0 644 232 764 597 45 140 57 224 57 413 0 189 -12 275 -58 414 -133 407 -482 658 -878 633 -166 -11 -311 -66 -406 -155 l-51 -48 0 383 0 383 -315 0 -315 0 -2 -1120z m1139 35 c140 -62 218 -193 244 -406 20 -163 -16 -360 -86 -469 -117 -181 -382 -212 -539 -62 -93 90 -116 159 -123 382 -11 327 32 454 184 541 90 52 221 58 320 14z"/>
 <path d="M7665 2835 c-212 -44 -360 -165 -426 -348 -48 -136 -51 -165 -56 -684 l-5 -492 -127 -3 -126 -3 0 -235 0 -235 128 -3 127 -3 0 -204 c0 -114 4 -206 9 -210 5 -3 96 -25 203 -50 106 -24 234 -54 285 -66 50 -12 99 -19 107 -16 14 6 16 41 16 276 l0 271 218 2 217 3 0 235 0 235 -218 3 -219 2 4 418 c4 406 5 419 27 475 15 38 34 66 58 85 36 26 39 27 182 28 l146 1 0 238 0 238 -40 14 c-108 38 -389 53 -510 28z"/>
 <path d="M9250 2835 c-136 -22 -270 -69 -358 -127 -24 -15 -47 -28 -51 -28 -17 0 -184 -166 -225 -224 -129 -182 -188 -379 -189 -631 -1 -375 146 -671 426 -858 223 -149 529 -210 819 -162 123 20 159 31 283 91 341 163 525 485 525 919 0 319 -82 537 -276 731 -234 235 -601 347 -954 289z m344 -479 c151 -71 236 -264 236 -533 0 -202 -51 -379 -135 -472 -63 -69 -138 -101 -242 -101 -231 0 -373 217 -373 571 0 147 21 255 69 353 42 86 92 146 144 173 90 47 212 51 301 9z"/>
 <path d="M14980 2835 c-340 -49 -576 -204 -728 -475 -157 -282 -149 -758 19 -1068 177 -326 477 -502 859 -502 288 0 510 97 663 290 115 145 168 271 193 465 16 120 16 448 0 474 -5 8 -186 11 -626 11 l-618 0 13 49 c57 216 321 321 703 281 104 -12 273 -43 318 -60 15 -6 32 -9 39 -7 6 3 17 36 24 73 13 71 30 157 55 279 9 38 12 73 8 76 -14 13 -166 61 -256 81 -207 45 -487 59 -666 33z m443 -1282 c-25 -183 -103 -289 -235 -321 -167 -42 -326 33 -399 188 -21 44 -49 133 -49 158 0 9 75 12 344 12 l345 0 -6 -37z"/>
 <path d="M6015 2788 c-3 -7 -4 -449 -3 -983 l3 -970 310 0 310 0 0 980 0 980 -308 3 c-241 2 -309 0 -312 -10z"/>
 <path d="M10835 2788 c-2 -7 -6 -434 -9 -948 -3 -514 -7 -951 -8 -970 l-3 -35 265 0 264 0 8 35 c4 19 10 77 14 127 l7 93 23 -31 c51 -69 150 -150 239 -194 192 -96 435 -101 614 -12 96 47 215 164 244 240 6 16 18 7 79 -58 186 -199 422 -279 687 -234 88 16 218 77 276 130 89 82 164 195 199 301 51 151 51 147 51 878 l0 685 -300 0 -300 0 -6 -605 c-5 -648 -6 -656 -59 -759 -43 -86 -150 -142 -242 -127 -108 17 -176 70 -226 175 l-27 56 -5 630 -5 630 -305 0 -305 0 -6 -620 c-3 -378 -9 -634 -16 -655 -19 -64 -62 -138 -99 -168 -91 -75 -242 -62 -332 29 -19 18 -48 60 -65 94 l-32 60 -5 630 -5 630 -303 3 c-237 2 -303 0 -307 -10z"/>
 <path d="M272 2670 c-45 -11 -108 -56 -133 -96 -30 -48 -29 -160 1 -208 24 -41 100 -93 144 -101 17 -3 173 -5 347 -3 l316 3 41 28 c23 15 56 46 72 69 26 36 30 49 30 108 0 59 -4 72 -30 108 -16 23 -49 54 -72 69 l-43 28 -320 2 c-176 1 -335 -2 -353 -7z"/>
 <path d="M144 1160 c-98 -23 -144 -88 -144 -203 0 -86 18 -122 88 -171 l42 -30 164 0 c177 0 183 2 249 63 43 39 60 80 60 142 0 91 -55 167 -142 197 -37 13 -266 15 -317 2z"/>
 <path d="M822 1157 c-18 -5 -55 -34 -81 -63 -55 -60 -70 -114 -51 -184 12 -45 68 -113 111 -136 36 -18 142 -18 177 0 32 17 84 71 102 106 18 35 17 129 -3 165 -22 43 -86 100 -126 114 -41 13 -84 13 -129 -2z"/>
 <path d="M6215 606 c-61 -19 -96 -41 -137 -83 -123 -127 -110 -352 27 -466 66 -54 241 -75 356 -41 138 40 231 224 189 374 -26 94 -118 186 -217 215 -61 18 -163 19 -218 1z"/>
 <path d="M399 373 c-35 -19 -64 -43 -84 -71 -27 -39 -30 -52 -30 -117 0 -67 3 -77 31 -112 44 -55 86 -73 169 -73 83 0 125 18 169 73 28 35 31 45 31 112 0 65 -3 78 -30 117 -34 49 -119 98 -170 98 -17 0 -56 -12 -86 -27z"/>
 </g>

</svg>